# xmcd
#
# Track frame offsets: 
#        182
#        16517
#        36002
#        55092
#        75655
#        94907
#        113770
#        132695
#        146895
#        169795
#
# Disc length: 2477 seconds
#
# Revision: 5
# Processed by: cddbd v1.5.2PL0 Copyright (c) Steve Scherf et al.
# Submitted via: ExactAudioCopy v0.99pb4
#
DISCID=7f09ab0a
DTITLE=Riccardo Cocciante - I Miti della Musica
DYEAR=1999
DGENRE=Cantautori
TTITLE0=Poesia
TTITLE1=Bella senz'anima
TTITLE2=L'alba
TTITLE3=Margherita
TTITLE4=A mano a mano
TTITLE5=Io canto
TTITLE6=Cervo a primavera
TTITLE7=Tu sei il mio amico carissimo
TTITLE8=In bicicletta
TTITLE9=Un nuovo amico
EXTD=
EXTT0=
EXTT1=
EXTT2=
EXTT3=
EXTT4=
EXTT5=
EXTT6=
EXTT7=
EXTT8=
EXTT9=
PLAYORDER=
